<?xml version="1.0" standalone="no"?>
<!DOCTYPE svg PUBLIC "-//W3C//DTD SVG 20010904//EN"
 "http://www.w3.org/TR/2001/REC-SVG-20010904/DTD/svg10.dtd">
<svg version="1.0" xmlns="http://www.w3.org/2000/svg"
 width="98.000000pt" height="78.000000pt" viewBox="0 0 98.000000 78.000000"
 preserveAspectRatio="xMidYMid meet">

<g transform="translate(0.000000,78.000000) scale(0.100000,-0.100000)"
fill="#000000" stroke="none">
<path d="M770 699 c-132 -100 -210 -178 -210 -212 0 -39 41 -79 166 -164 89
-60 112 -79 102 -88 -7 -7 -68 -36 -135 -65 -68 -29 -123 -56 -123 -60 0 -16
47 -75 61 -78 25 -5 122 35 188 78 92 60 151 118 151 149 0 37 -7 43 -90 84
-85 42 -213 134 -218 157 -1 9 33 39 92 78 122 82 139 101 140 153 1 23 -3 43
-9 45 -5 1 -57 -33 -115 -77z"/>
<path d="M245 738 c-45 -137 -70 -206 -135 -378 -43 -113 -86 -232 -96 -264
l-18 -59 23 -18 c50 -41 100 -9 121 75 29 116 28 114 113 181 45 36 86 65 92
65 6 0 26 -54 44 -119 40 -145 47 -157 87 -144 17 6 30 18 32 30 2 11 -20 78
-48 149 l-50 129 22 15 c13 8 38 29 56 46 27 27 32 39 32 78 0 25 -4 46 -8 46
-4 0 -32 -25 -62 -55 -30 -30 -57 -55 -61 -55 -3 0 -12 28 -18 63 -21 111 -50
185 -81 207 -33 23 -39 24 -45 8z m64 -258 l20 -61 -57 -44 c-50 -40 -72 -52
-72 -42 0 19 77 207 84 207 2 0 13 -27 25 -60z"/>
</g>
</svg>
